<svg id="Layer_1" data-name="Layer 1" xmlns="http://www.w3.org/2000/svg" viewBox="0 0 32 32"><defs><style>.cls-1,.cls-3{fill:#fff;}.cls-2,.cls-3{isolation:isolate;}.cls-3{font-size:22.7px;font-family:ArialMT, Arial;}</style></defs><circle cx="16" cy="16" r="15.92"/><path d="M918,490.15A15.85,15.85,0,1,1,902.15,506,15.87,15.87,0,0,1,918,490.15m0-.15a16,16,0,1,0,16,16,16,16,0,0,0-16-16Z" transform="translate(-902 -490)"/><path d="M918,522a16,16,0,1,1,16-16A16,16,0,0,1,918,522Zm0-28.22A12.24,12.24,0,1,0,930.24,506,12.25,12.25,0,0,0,918,493.76Z" transform="translate(-902 -490)"/><path d="M918,490a16,16,0,1,1-16,16,16,16,0,0,1,16-16m0,28.22A12.26,12.26,0,1,0,905.74,506,12.27,12.27,0,0,0,918,518.26M918,490a16,16,0,1,0,16,16,16,16,0,0,0-16-16Zm0,28.22A12.22,12.22,0,1,1,930.22,506,12.22,12.22,0,0,1,918,518.22Z" transform="translate(-902 -490)"/><path class="cls-1" d="M902.25,503.14a16.3,16.3,0,0,1,2.62-6.26l2.71,2.74a11.65,11.65,0,0,0-1.48,3.52Z" transform="translate(-902 -490)"/><path d="M904.86,496.93l2.68,2.68a12.09,12.09,0,0,0-1.46,3.52H902.3a15.74,15.74,0,0,1,2.56-6.2m0-.06a15.87,15.87,0,0,0-2.61,6.29h3.86a12.41,12.41,0,0,1,1.48-3.56l-2.73-2.73Z" transform="translate(-902 -490)"/><path class="cls-1" d="M904.86,515.1a15.74,15.74,0,0,1-2.59-6.27l3.84,0a12.05,12.05,0,0,0,1.46,3.55Z" transform="translate(-902 -490)"/><path d="M906.08,508.87a12.09,12.09,0,0,0,1.46,3.52l-2.68,2.68a15.74,15.74,0,0,1-2.56-6.2h3.78m0,0h-3.86a15.87,15.87,0,0,0,2.61,6.29l2.73-2.73a12.41,12.41,0,0,1-1.48-3.56Z" transform="translate(-902 -490)"/><path class="cls-1" d="M924.4,495.57a11.92,11.92,0,0,0-3.56-1.47l0-3.85a16.3,16.3,0,0,1,6.26,2.62Z" transform="translate(-902 -490)"/><path d="M920.87,490.3a15.74,15.74,0,0,1,6.2,2.56l-2.68,2.68a12.09,12.09,0,0,0-3.52-1.46V490.3m0-.05v3.86a12.41,12.41,0,0,1,3.56,1.48l2.73-2.73a15.87,15.87,0,0,0-6.29-2.61Z" transform="translate(-902 -490)"/><path class="cls-1" d="M908.88,492.85a16.17,16.17,0,0,1,6.29-2.58l0,3.84a11.73,11.73,0,0,0-3.54,1.46Z" transform="translate(-902 -490)"/><path d="M915.13,490.3v3.78a12.09,12.09,0,0,0-3.52,1.46l-2.68-2.68a15.74,15.74,0,0,1,6.2-2.56m0-.05a15.87,15.87,0,0,0-6.29,2.61l2.73,2.73a12.41,12.41,0,0,1,3.56-1.48v-3.86Z" transform="translate(-902 -490)"/><path class="cls-1" d="M920.86,517.89a12.05,12.05,0,0,0,3.55-1.46l2.71,2.72a16.19,16.19,0,0,1-6.26,2.58Z" transform="translate(-902 -490)"/><path d="M924.39,516.46l2.68,2.68a15.74,15.74,0,0,1-6.2,2.56v-3.78a12.09,12.09,0,0,0,3.52-1.46m0-.05a12.41,12.41,0,0,1-3.56,1.48v3.86a15.87,15.87,0,0,0,6.29-2.61l-2.73-2.73Z" transform="translate(-902 -490)"/><path class="cls-1" d="M929.89,503.14a12.05,12.05,0,0,0-1.46-3.55l2.72-2.71a16.19,16.19,0,0,1,2.58,6.26Z" transform="translate(-902 -490)"/><path d="M931.14,496.93a15.74,15.74,0,0,1,2.56,6.2h-3.78a12.09,12.09,0,0,0-1.46-3.52l2.68-2.68m0-.06-2.73,2.73a12.41,12.41,0,0,1,1.48,3.56h3.86a15.87,15.87,0,0,0-2.61-6.29Z" transform="translate(-902 -490)"/><path class="cls-1" d="M915.14,521.73a15.92,15.92,0,0,1-6.26-2.6l2.74-2.71a11.51,11.51,0,0,0,3.54,1.48Z" transform="translate(-902 -490)"/><path d="M911.61,516.46a12.09,12.09,0,0,0,3.52,1.46v3.78a15.74,15.74,0,0,1-6.2-2.56l2.68-2.68m0-.05-2.73,2.73a15.87,15.87,0,0,0,6.29,2.61v-3.86a12.41,12.41,0,0,1-3.56-1.48Z" transform="translate(-902 -490)"/><path class="cls-1" d="M928.42,512.38a11.51,11.51,0,0,0,1.48-3.54l3.85,0a16.13,16.13,0,0,1-2.61,6.24Z" transform="translate(-902 -490)"/><path d="M933.7,508.87a15.74,15.74,0,0,1-2.56,6.2l-2.68-2.68a12.09,12.09,0,0,0,1.46-3.52h3.78m0,0h-3.86a12.41,12.41,0,0,1-1.48,3.56l2.73,2.73a15.87,15.87,0,0,0,2.61-6.29Z" transform="translate(-902 -490)"/><g id="text2160" class="cls-2"><text class="cls-3" transform="translate(9.1 22.05) scale(1.14 1)">♠</text></g></svg>