<svg id="Layer_1" data-name="Layer 1" xmlns="http://www.w3.org/2000/svg" viewBox="0 0 32.16 32.16"><defs><style>.cls-1,.cls-4{fill:#fff;}.cls-1,.cls-2{stroke:#000;stroke-miterlimit:10;}.cls-1{stroke-width:0.16px;}.cls-2{stroke-width:0.16px;}.cls-3{fill:none;}</style></defs><circle class="cls-1" cx="16.08" cy="16.08" r="16"/><ellipse class="cls-2" cx="16.19" cy="16.08" rx="13.01" ry="13.12"/><rect class="cls-3" x="8.72" y="14.69" width="6.4" height="6.4"/><path d="M22.24-.67A16.21,16.21,0,0,0,13.71-4.3v3.2A14.32,14.32,0,0,1,20,1.46Z" transform="translate(4.08 4.38)"/><path d="M24.8,10.1H28a15.76,15.76,0,0,0-3.52-8.43L22.24,3.91A11.14,11.14,0,0,1,24.8,10.1Z" transform="translate(4.08 4.38)"/><path d="M22.24,19.49l2.24,2.24A16.12,16.12,0,0,0,28,13.3H24.8A11.45,11.45,0,0,1,22.24,19.49Z" transform="translate(4.08 4.38)"/><path d="M13.71,24.29v3.2A16.41,16.41,0,0,0,22.24,24L20,21.73A10.68,10.68,0,0,1,13.71,24.29Z" transform="translate(4.08 4.38)"/><path d="M1.76,24a16.08,16.08,0,0,0,8.53,3.52v-3.2A14.32,14.32,0,0,1,4,21.73Z" transform="translate(4.08 4.38)"/><path d="M-.8,13.3H-4A15.76,15.76,0,0,0-.48,21.73l2.24-2.24A13.42,13.42,0,0,1-.8,13.3Z" transform="translate(4.08 4.38)"/><path d="M1.76,3.81-.48,1.57A15.69,15.69,0,0,0-4,10H-.8A13.89,13.89,0,0,1,1.76,3.81Z" transform="translate(4.08 4.38)"/><path d="M10.51-1V-4.3A15.75,15.75,0,0,0,2-.78L4.21,1.46A13.26,13.26,0,0,1,10.51-1Z" transform="translate(4.08 4.38)"/><g id="layer1"><path id="path3200" class="cls-4" d="M12.05,2.89a24.69,24.69,0,0,1-7.26,8.85,26.14,26.14,0,0,1,7.26,8.85,24.66,24.66,0,0,1,7.25-8.85A24.66,24.66,0,0,1,12.05,2.89Z" transform="translate(4.08 4.38)"/></g></svg>